<svg width="19" height="21" viewBox="0 0 19 21" fill="none" xmlns="http://www.w3.org/2000/svg">
<g clip-path="url(#clip0)">
<path d="M0 11.7464C0 11.4724 0 11.1983 0 10.9372C0 10.9111 0.0133848 10.885 0.0133848 10.8589C0.0267695 10.6501 0.0401543 10.4413 0.0669239 10.2194C0.187387 9.33189 0.455082 8.48354 0.923549 7.71349C1.65971 6.4997 2.70372 5.6644 4.09574 5.24675C4.6579 5.07707 5.23345 4.99876 5.83576 5.03792C6.25069 5.07707 6.63885 5.16844 7.04039 5.29895C7.5624 5.46862 8.0844 5.65134 8.60641 5.82101C8.99457 5.95153 9.38272 5.97763 9.77088 5.83407C10.2661 5.65134 10.7614 5.49472 11.27 5.32505C11.8188 5.14233 12.3675 5.01182 12.9431 4.97266C13.4651 4.93351 13.9871 5.01182 14.4957 5.11623C15.5397 5.33811 16.4499 5.80796 17.1727 6.57801C17.3199 6.73463 17.4404 6.89124 17.5742 7.04786C17.427 7.15228 17.2797 7.23059 17.1459 7.32195C16.5302 7.75265 16.0082 8.27471 15.6602 8.94034C15.1248 9.97142 15.0311 11.0547 15.2988 12.151C15.6736 13.6911 16.6908 14.7091 18.1498 15.3617C18.1498 15.3748 18.1498 15.3878 18.1498 15.4009C18.1364 15.427 18.123 15.4531 18.1096 15.4792C17.949 15.8707 17.8017 16.2623 17.6277 16.6408C17.1994 17.5805 16.6105 18.4288 15.9546 19.225C15.62 19.6426 15.2453 20.0472 14.8036 20.3735C14.3619 20.6868 13.88 20.8956 13.3312 20.9478C12.9029 20.9739 12.488 20.8956 12.0864 20.7781C11.7117 20.6607 11.3503 20.5171 10.9755 20.3866C10.4669 20.2169 9.9315 20.1125 9.38272 20.1386C8.82056 20.1517 8.28517 20.2822 7.76317 20.4649C7.34824 20.6085 6.93331 20.752 6.51838 20.8825C6.35777 20.9348 6.18376 20.9478 6.02315 20.987C5.86253 20.987 5.7153 20.987 5.55468 20.987C5.5413 20.987 5.5413 20.9739 5.52791 20.9739C5.07283 20.9217 4.67129 20.7259 4.3099 20.4649C3.8682 20.1517 3.49343 19.7601 3.14542 19.3425C1.99433 17.9981 1.13771 16.4972 0.58893 14.8136C0.30785 13.926 0.107078 13.0124 0.0267695 12.0858C0.0267695 11.9814 0.0133848 11.8639 0 11.7464Z" fill="black"/>
<path d="M13.5855 0C13.5855 0.234929 13.5989 0.469857 13.5855 0.704786C13.5587 1.33126 13.3713 1.90553 13.0635 2.4537C12.5683 3.3151 11.899 4.01989 11.0156 4.5289C10.4535 4.84214 9.85115 4.99876 9.20868 4.98571C9.12837 4.98571 9.08822 4.97265 9.07483 4.86824C9.02129 4.1504 9.16852 3.48477 9.47637 2.84525C10.1992 1.37042 11.377 0.469857 12.9832 0.0783095C13.1438 0.0391548 13.291 0.0261032 13.4516 0C13.5052 0 13.5453 0 13.5855 0Z" fill="black"/>
</g>
<defs>
<clipPath id="clip0">
<rect width="18.1364" height="21" fill="white"/>
</clipPath>
</defs>
</svg>
