<svg width="18" height="21" viewBox="0 0 18 21" fill="none" xmlns="http://www.w3.org/2000/svg">
<g clip-path="url(#clip0)">
<path d="M0.38961 0.311707C0.155844 0.545473 0 0.935083 0 1.40262V18.6234C0 19.0909 0.155844 19.4805 0.38961 19.7143L0.467532 19.7922L10.0519 10.1299V10.052V9.97404L0.38961 0.311707Z" fill="url(#paint0_linear)"/>
<path d="M13.3247 13.3247L10.0519 10.1299V10.052V9.97404L13.2467 6.77924L13.3247 6.85716L17.1428 9.03898C18.2338 9.66235 18.2338 10.6753 17.1428 11.2987L13.3247 13.3247Z" fill="url(#paint1_linear)"/>
<path d="M13.3247 13.3247L10.0519 10.0519L0.389587 19.7143C0.779198 20.1039 1.32465 20.1039 2.02595 19.7922L13.3247 13.3247Z" fill="url(#paint2_linear)"/>
<path d="M13.3247 6.70131L1.94803 0.23378C1.32465 -0.15583 0.701276 -0.0779081 0.389587 0.311702L10.1298 10.052L13.3247 6.70131Z" fill="url(#paint3_linear)"/>
<path opacity="0.2" d="M13.3247 13.2468L1.94807 19.6364C1.32469 20.026 0.779239 19.9481 0.389629 19.6364L0.311707 19.7143L0.389629 19.7922C0.779239 20.1039 1.32469 20.1818 1.94807 19.7922L13.3247 13.2468Z" fill="black"/>
<path opacity="0.12" d="M0.38961 19.6364C0.155844 19.4026 0 19.013 0 18.5455V18.6234C0 19.0909 0.155844 19.4805 0.38961 19.7143V19.6364Z" fill="black"/>
<path opacity="0.12" d="M17.1429 11.0649L13.2468 13.2467L13.3247 13.3247L17.1429 11.1429C17.6883 10.8312 17.9221 10.4416 17.9221 10.0519C17.9221 10.3636 17.6883 10.7532 17.1429 11.0649Z" fill="black"/>
<path opacity="0.25" d="M1.94805 0.389618L17.1429 9.03897C17.6104 9.35066 17.9221 9.66234 17.9221 10.052C17.9221 9.66234 17.6883 9.27274 17.1429 8.96105L1.94805 0.233774C0.857143 -0.389602 0 0.155852 0 1.40261V1.48053C0 0.233774 0.857143 -0.233758 1.94805 0.389618Z" fill="white"/>
</g>
<defs>
<linearGradient id="paint0_linear" x1="9.21592" y1="1.22277" x2="-3.86127" y2="14.3" gradientUnits="userSpaceOnUse">
<stop stop-color="#00A0FF"/>
<stop offset="0.00657445" stop-color="#00A1FF"/>
<stop offset="0.2601" stop-color="#00BEFF"/>
<stop offset="0.5122" stop-color="#00D2FF"/>
<stop offset="0.7604" stop-color="#00DFFF"/>
<stop offset="1" stop-color="#00E3FF"/>
</linearGradient>
<linearGradient id="paint1_linear" x1="18.5936" y1="10.0215" x2="-0.261124" y2="10.0215" gradientUnits="userSpaceOnUse">
<stop stop-color="#FFE000"/>
<stop offset="0.4087" stop-color="#FFBD00"/>
<stop offset="0.7754" stop-color="#FFA500"/>
<stop offset="1" stop-color="#FF9C00"/>
</linearGradient>
<linearGradient id="paint2_linear" x1="11.5748" y1="11.8096" x2="-6.15891" y2="29.5433" gradientUnits="userSpaceOnUse">
<stop stop-color="#FF3A44"/>
<stop offset="1" stop-color="#C31162"/>
</linearGradient>
<linearGradient id="paint3_linear" x1="-2.08467" y1="-5.42671" x2="5.83424" y2="2.49212" gradientUnits="userSpaceOnUse">
<stop stop-color="#32A071"/>
<stop offset="0.0685" stop-color="#2DA771"/>
<stop offset="0.4762" stop-color="#15CF74"/>
<stop offset="0.8009" stop-color="#06E775"/>
<stop offset="1" stop-color="#00F076"/>
</linearGradient>
<clipPath id="clip0">
<rect width="18" height="20.026" fill="white"/>
</clipPath>
</defs>
</svg>
