<svg width="312" height="232" viewBox="0 0 312 232" fill="none" xmlns="http://www.w3.org/2000/svg">
<rect width="312" height="204" rx="8" fill="#F5F5FB"/>
<mask id="mask0" mask-type="alpha" maskUnits="userSpaceOnUse" x="0" y="0" width="312" height="204">
<rect width="312" height="204" rx="8" fill="#F5F5FB"/>
</mask>
<g mask="url(#mask0)">
<circle cx="298.5" cy="26.5" r="44.5" stroke="#5E81F4" stroke-width="28"/>
<circle cx="13.5" cy="222.5" r="63.5" stroke="#5E81F4" stroke-width="36"/>
</g>
<path d="M236.557 68.2731C228.685 68.7351 225.604 76.935 224.691 78.7828C223.778 80.6307 223.664 82.7095 223.436 84.7883C223.208 86.8672 222.98 88.946 221.953 90.7939C220.242 93.5657 216.591 95.067 215.564 98.1853C214.423 101.766 217.275 105.461 216.591 109.157C216.134 111.12 214.765 112.737 214.309 114.701C213.738 116.664 214.309 118.858 215.336 120.706C217.96 125.21 223.208 127.405 228.342 127.636C233.476 127.866 238.497 126.25 243.289 124.748" fill="#263238"/>
<path d="M271.013 78.5519C270.215 80.2842 271.013 82.2476 272.154 83.6335C273.409 85.0194 275.007 85.9433 276.376 87.0982C277.745 88.2531 279.114 89.7545 279.228 91.6024C279.342 93.3347 278.544 94.9516 278.772 96.684C279.342 100.957 286.188 102.343 286.53 106.616C286.758 109.503 283.792 112.16 284.705 114.932C285.047 115.971 285.846 116.779 286.416 117.819C288.356 121.053 286.987 125.557 284.248 128.098C281.396 130.638 277.517 131.562 273.866 131.678C270.671 131.793 267.134 131.331 265.309 128.675C263.597 126.365 263.94 123.131 264.282 120.244C265.879 106.732 265.651 92.9883 265.309 79.3603" fill="#263238"/>
<path d="M238.611 141.148C238.725 133.988 238.611 126.596 238.611 126.596C238.611 126.596 229.597 124.979 227.886 112.968C226.174 101.535 229.027 76.935 229.027 76.935C242.148 71.7379 256.866 73.7012 265.993 84.4419L264.624 142.187C264.51 148.886 258.577 154.083 251.503 153.852C244.315 153.621 238.611 147.962 238.611 141.148Z" fill="#FFBE9D"/>
<path d="M231.423 95.76C231.423 96.5684 231.993 97.2614 232.906 97.3769C233.705 97.3769 234.389 96.7994 234.503 95.991C234.503 95.1825 233.933 94.4896 233.02 94.3741C232.221 94.3741 231.537 94.9515 231.423 95.76Z" fill="#263238"/>
<path d="M229.027 94.6051C229.255 94.8361 230.396 93.9121 231.993 94.0276C235.074 94.4896 234.96 94.9516 234.96 94.7206C235.074 94.6051 234.846 94.2586 234.389 93.9121C233.933 93.5657 233.02 93.1037 231.993 93.1037C230.966 93.1037 230.168 93.4502 229.597 93.7966C229.141 94.1431 228.913 94.4896 229.027 94.6051Z" fill="#263238"/>
<path d="M248.195 96.3374C248.195 97.1459 248.765 97.8388 249.678 97.9543C250.476 97.9543 251.161 97.3769 251.275 96.5684C251.275 95.76 250.705 95.067 249.792 94.9515C248.879 94.8361 248.195 95.529 248.195 96.3374Z" fill="#263238"/>
<path d="M246.027 95.1825C246.255 95.4135 247.396 94.4896 248.993 94.6051C250.591 94.6051 251.846 95.4135 251.96 95.298C252.074 95.1825 251.846 94.8361 251.389 94.4896C250.933 94.1431 250.02 93.6812 248.993 93.6812C247.966 93.6812 247.168 94.0276 246.597 94.3741C246.141 94.7206 245.913 95.067 246.027 95.1825Z" fill="#263238"/>
<path d="M239.98 107.078C239.98 106.963 238.953 106.847 237.356 106.616C236.899 106.616 236.557 106.501 236.443 106.154C236.329 105.808 236.557 105.346 236.785 104.884C237.242 103.844 237.584 102.805 238.04 101.65C239.752 97.1459 241.121 93.3347 240.893 93.3347C240.664 93.2192 239.181 96.9149 237.356 101.419C236.899 102.574 236.557 103.613 236.101 104.653C235.987 105.115 235.644 105.692 235.872 106.27C235.987 106.616 236.329 106.847 236.557 106.847C236.785 106.963 237.013 106.963 237.242 106.963C238.953 107.078 239.98 107.078 239.98 107.078Z" fill="#263238"/>
<path d="M238.611 126.481C238.611 126.481 246.597 127.058 254.47 122.438C254.47 122.438 250.591 130.638 238.725 129.368L238.611 126.481Z" fill="#EB996E"/>
<path d="M240.664 111.005C241.235 110.196 242.262 109.85 243.289 109.965C243.973 110.081 244.658 110.427 245.114 111.005C245.57 111.582 245.57 112.391 245.228 112.968C244.772 113.546 243.859 113.777 243.06 113.546C242.262 113.315 241.577 112.737 241.007 112.275C240.778 112.16 240.664 111.929 240.55 111.813C240.436 111.467 240.436 111.236 240.664 111.005Z" fill="#EB996E"/>
<path d="M244.772 108.233C244.544 108.233 244.429 109.965 242.946 111.236C241.463 112.506 239.523 112.275 239.523 112.506C239.523 112.622 239.98 112.853 240.778 112.853C241.577 112.853 242.718 112.622 243.631 111.929C244.544 111.12 245 110.081 245 109.388C245.114 108.695 244.886 108.233 244.772 108.233Z" fill="#263238"/>
<path d="M260.859 75.8956C256.523 82.1321 245.114 88.5996 236.899 89.9855C237.812 88.7151 242.832 85.5968 243.859 84.3264C240.094 87.0982 234.846 90.9094 229.94 91.1404C229.369 91.1404 228.685 91.1404 228.228 90.9094C227.544 90.5629 227.429 89.7545 227.315 89.0615C226.973 86.1743 227.201 81.0927 227.658 78.2054C228.114 75.3181 229.483 72.4308 231.879 70.4675C235.074 68.0422 239.523 67.3492 243.859 67.2337C247.396 67.1182 251.161 67.3492 254.356 68.6196C257.664 69.89 260.403 72.5463 260.859 75.5491" fill="#263238"/>
<path d="M273.295 103.844C273.866 100.726 274.322 97.8389 274.436 95.8755C274.778 89.7545 273.067 67.0028 252.074 68.7351L251.161 75.2026C251.161 75.2026 247.966 97.3769 261.544 97.4924C261.544 97.4924 262.342 104.075 268.503 110.543C268.389 110.543 271.926 110.427 273.295 103.844Z" fill="#263238"/>
<path d="M261.544 97.4924C262.799 97.2614 264.168 97.2614 265.309 97.8389C266.45 98.3008 267.591 99.2248 268.047 100.38C268.503 101.535 268.503 102.92 268.047 104.191C267.591 105.461 266.792 106.501 265.879 107.425C265.195 108.118 264.51 108.695 263.597 108.926C262.684 109.157 261.658 109.041 260.973 108.464" fill="#FFBE9D"/>
<path d="M262.114 105.346C262 105.346 262.456 106.154 263.711 105.923C264.282 105.808 264.852 105.346 265.195 104.653C265.537 104.075 265.765 103.382 265.879 102.574C265.993 101.766 265.765 100.957 265.423 100.264C264.966 99.6867 264.396 99.2247 263.825 99.2247C262.685 99.2247 262.228 100.033 262.342 100.033C262.456 100.149 262.913 99.6867 263.711 99.9177C264.51 100.033 265.195 101.073 264.966 102.458C264.852 103.729 264.282 104.999 263.597 105.23C262.685 105.577 262.228 105.23 262.114 105.346Z" fill="#EB996E"/>
<path d="M263.825 73.5858C265.423 74.5097 267.362 74.7407 269.188 74.2787C271.013 73.8168 272.611 72.5464 273.523 70.9295C274.094 69.8901 274.436 68.6197 274.208 67.4648C273.752 65.8479 272.268 64.8085 270.671 64.3465C268.389 63.769 265.765 64.3465 264.054 65.9634C262.342 67.5802 261.544 70.2365 262.342 72.5464C263.141 74.8562 265.423 76.4731 267.819 76.3576" fill="#263238"/>
<path d="M265.765 108.002C264.624 108.811 263.369 109.734 262.456 110.889C261.544 112.044 260.859 113.43 261.087 114.932C261.201 115.74 261.429 116.548 261.315 117.357C261.201 118.512 260.289 119.32 259.604 120.244C258.121 122.669 258.691 126.134 260.631 128.213C262.57 130.292 265.537 131.331 268.389 131.447C270.101 131.447 271.812 131.216 273.181 130.292C275.121 128.906 275.919 126.25 275.919 123.824" fill="#263238"/>
<path d="M267.134 78.3209C267.248 78.3209 266.792 79.2448 265.879 80.5152C264.966 81.7856 263.597 83.4025 261.886 85.0194C260.06 86.5207 258.235 87.6756 256.866 88.3686C255.497 89.0615 254.584 89.2925 254.584 89.2925C254.47 89.0615 258.007 87.6756 261.544 84.5574C264.966 81.4391 267.02 78.2054 267.134 78.3209Z" fill="#455A64"/>
<path d="M269.302 78.2054C269.416 78.2054 269.302 79.3603 268.96 81.0926C268.503 82.825 267.705 85.2503 266.336 87.6756C264.852 90.1009 263.255 91.9488 261.886 93.1037C260.517 94.2586 259.604 94.8361 259.49 94.8361C259.376 94.7206 263.027 92.0643 265.879 87.3292C268.617 82.7095 269.074 78.0899 269.302 78.2054Z" fill="#455A64"/>
<path d="M223.664 87.7911C223.893 87.7911 224.121 89.7545 224.691 92.1798C225.376 94.4896 226.174 96.3375 226.06 96.453C225.946 96.5685 224.805 94.8361 224.121 92.4108C223.55 89.87 223.55 87.7911 223.664 87.7911Z" fill="#455A64"/>
<path d="M274.094 128.675C274.094 128.559 274.664 129.252 275.805 129.252C276.376 129.252 277.174 129.137 277.859 128.559C278.544 128.098 279.114 127.289 279.342 126.25C279.57 125.21 279.57 124.055 279.342 122.785C279.114 121.515 278.658 120.244 278.201 118.858C277.745 117.472 277.403 115.855 277.745 114.239C277.973 112.506 279.114 111.12 279.57 109.619C280.141 108.118 279.913 106.385 279.228 105.115C278.544 103.613 277.403 102.689 276.033 102.112C275.349 101.881 274.664 101.535 274.094 101.188C273.523 100.842 272.839 100.38 272.497 99.8022C271.812 98.5318 271.812 97.2614 271.812 96.222C271.812 95.0671 271.926 94.1432 271.698 93.3347C271.47 92.5263 271.242 91.8333 270.785 91.3714C269.987 90.4475 269.188 90.4474 269.302 90.4474C269.302 90.4474 269.53 90.4474 269.758 90.4474C270.101 90.5629 270.557 90.7939 271.013 91.2559C271.47 91.7179 271.812 92.4108 272.04 93.3347C272.268 94.2587 272.268 95.2981 272.268 96.3375C272.268 97.3769 272.268 98.6473 272.953 99.6867C273.638 100.726 274.893 101.188 276.262 101.766C277.631 102.228 279 103.382 279.684 104.884C280.369 106.385 280.711 108.233 280.027 109.85C279.456 111.467 278.429 112.853 278.201 114.354C277.973 115.855 278.315 117.357 278.658 118.743C279.114 120.129 279.57 121.515 279.799 122.785C280.027 124.055 280.027 125.326 279.684 126.481C279.342 127.636 278.772 128.444 277.973 129.021C277.174 129.483 276.376 129.714 275.805 129.599C275.121 129.599 274.664 129.368 274.436 129.137C274.094 128.79 274.094 128.675 274.094 128.675Z" fill="#455A64"/>
<path d="M265.765 127.867C265.765 127.867 265.879 128.213 266.45 128.444C266.906 128.675 268.047 128.675 268.617 127.867C269.188 126.943 269.188 125.557 268.389 124.286C267.705 123.016 266.45 121.745 266.107 119.782C265.879 118.858 266.107 117.819 266.792 117.126C267.362 116.433 268.047 115.971 268.389 115.393C269.302 114.239 269.302 112.853 269.188 111.698C269.074 110.543 268.731 109.734 268.503 109.041C268.275 108.464 268.161 108.118 268.275 108.118C268.275 108.118 268.503 108.464 268.731 109.041C268.96 109.619 269.416 110.543 269.53 111.698C269.758 112.853 269.758 114.47 268.731 115.74C268.275 116.433 267.591 116.895 267.134 117.472C266.678 118.05 266.45 118.858 266.678 119.667C266.906 121.284 268.161 122.554 268.846 124.055C269.53 125.441 269.644 127.174 268.846 128.213C268.503 128.79 267.819 129.021 267.362 129.021C266.906 129.021 266.45 129.021 266.107 128.79C265.765 128.328 265.765 127.867 265.765 127.867Z" fill="#455A64"/>
<path d="M221.04 124.864C221.04 124.864 220.698 124.517 220.127 123.94C219.557 123.247 218.758 122.323 218.188 120.937C217.846 120.244 217.732 119.32 217.732 118.396C217.732 117.472 218.074 116.433 218.758 115.624C219.443 114.816 220.47 114.354 221.154 113.546C221.839 112.737 221.839 111.698 221.611 110.543C221.383 109.503 220.812 108.464 220.356 107.54C219.899 106.616 219.443 105.577 219.215 104.537C218.987 103.498 219.215 102.343 219.785 101.65C220.356 100.842 220.926 100.38 221.497 99.8022C222.638 98.8783 223.322 97.8388 223.436 97.0304C223.55 96.222 223.322 95.76 223.436 95.76C223.436 95.76 223.55 95.8755 223.664 96.1065C223.778 96.3375 223.778 96.6839 223.778 97.1459C223.664 98.0698 222.98 99.2247 221.839 100.264C221.268 100.842 220.698 101.304 220.242 102.112C219.785 102.805 219.557 103.729 219.785 104.653C219.899 105.577 220.356 106.501 220.926 107.54C221.383 108.464 221.953 109.503 222.295 110.774C222.523 111.929 222.523 113.315 221.725 114.239C220.926 115.163 219.899 115.509 219.329 116.317C218.758 117.01 218.416 117.934 218.416 118.743C218.416 119.551 218.53 120.36 218.758 121.053C219.329 122.438 220.013 123.362 220.584 124.055C220.812 124.402 221.154 124.864 221.04 124.864Z" fill="#455A64"/>
<path d="M268.617 75.0872C268.503 75.2027 267.705 73.3548 265.879 72.0844C264.054 70.6985 262.228 70.352 262.228 70.2365C262.228 70.1211 264.282 70.1211 266.221 71.6224C268.161 73.0083 268.846 75.0872 268.617 75.0872Z" fill="#E8505B"/>
<path d="M270.329 64C270.443 64 270.785 64.462 271.127 65.2704C271.47 66.1943 271.584 67.4647 271.242 68.9661C270.899 70.352 269.987 71.5069 269.302 72.0844C268.617 72.6618 268.047 72.8928 268.047 72.7773C268.047 72.6618 268.503 72.4308 269.074 71.7379C269.644 71.0449 270.329 70.121 270.785 68.8506C271.127 67.5802 271.013 66.3098 270.899 65.5014C270.443 64.5775 270.215 64 270.329 64Z" fill="#455A64"/>
<path d="M185.5 204L201.074 167.325L220.698 179.798L207 204C207 204 202.5 204 185.5 204Z" fill="#EB996E"/>
<path d="M217.732 141.379C226.859 136.528 238.611 135.142 238.611 135.142C242.034 142.072 252.872 142.996 259.376 138.261L264.852 134.449C264.852 134.449 265.651 134.449 267.134 134.565C280.027 135.72 290.638 145.421 293.262 158.356C294.174 162.976 294.973 168.404 294.631 173.37C293.946 185.958 281.054 187.113 281.054 187.113C281.054 187.113 280.799 192.952 280 203C273 203 275.121 202.382 268.275 205.5C263.255 207.81 267.813 203 251 203C226.5 203 236.5 203 220 203C221.94 190.989 214.879 187.806 214.651 187.113C214.651 186.998 214.651 186.882 214.651 186.882L201.872 175.333L194.57 169.212C194.685 169.212 210.544 145.306 217.732 141.379Z" fill="#5E81F4"/>
<path d="M233.591 149.117C233.591 149.232 232.45 148.193 230.396 148.193C229.369 148.193 228.114 148.539 227.087 149.348C226.631 149.81 226.174 150.387 225.604 150.965C225.148 151.542 224.463 152.235 223.55 152.351C222.638 152.582 221.725 152.12 221.154 151.658C220.47 151.196 219.899 150.734 219.329 150.387C218.188 149.694 216.933 149.81 216.02 150.041C215.107 150.387 214.423 150.965 214.081 151.427C213.738 151.889 213.624 152.235 213.51 152.12C213.51 152.12 213.51 151.773 213.852 151.196C214.195 150.734 214.765 150.041 215.792 149.579C216.819 149.117 218.302 149.001 219.557 149.81C220.242 150.156 220.812 150.618 221.383 150.965C221.953 151.311 222.638 151.658 223.322 151.542C224.007 151.427 224.577 150.849 225.034 150.387C225.49 149.81 225.946 149.232 226.631 148.77C227.772 147.846 229.141 147.615 230.282 147.615C231.423 147.615 232.221 147.962 232.678 148.308C233.362 148.886 233.591 149.117 233.591 149.117Z" fill="#FAFAFA" fill-opacity="0.8"/>
<path d="M246.597 166.325C246.483 166.441 245.799 165.17 243.859 164.477C242.946 164.131 241.691 164.015 240.436 164.477C239.866 164.708 239.181 165.17 238.611 165.517C237.926 165.863 237.128 166.325 236.215 166.21C235.302 166.094 234.617 165.401 234.161 164.824C233.705 164.246 233.248 163.553 232.792 163.091C231.993 162.052 230.738 161.705 229.711 161.705C228.685 161.705 227.886 162.052 227.43 162.398C226.973 162.745 226.745 162.976 226.631 162.976C226.631 162.976 226.745 162.629 227.201 162.283C227.658 161.936 228.456 161.474 229.597 161.359C230.624 161.243 232.107 161.59 233.134 162.745C233.591 163.322 234.047 163.9 234.503 164.477C234.96 165.055 235.53 165.517 236.215 165.632C236.899 165.748 237.584 165.401 238.268 165.055C238.953 164.708 239.523 164.246 240.208 164.015C241.577 163.553 242.946 163.669 243.973 164.131C245 164.477 245.685 165.17 246.027 165.632C246.483 165.979 246.597 166.325 246.597 166.325Z" fill="#FAFAFA" fill-opacity="0.8"/>
<path d="M275.463 141.148C275.463 141.263 274.208 140.57 272.154 140.917C271.128 141.148 269.987 141.725 269.188 142.765C268.732 143.227 268.503 143.92 268.047 144.613C267.705 145.306 267.134 145.999 266.336 146.461C265.423 146.807 264.51 146.576 263.826 146.345C263.141 146.114 262.456 145.768 261.772 145.537C260.517 145.075 259.262 145.421 258.463 145.999C257.55 146.576 257.094 147.269 256.866 147.731C256.638 148.193 256.523 148.539 256.523 148.539C256.523 148.539 256.524 148.193 256.638 147.615C256.866 147.038 257.322 146.23 258.235 145.652C259.148 145.075 260.517 144.613 262 145.075C262.685 145.306 263.369 145.652 264.054 145.883C264.738 146.114 265.423 146.23 266.107 145.999C266.792 145.768 267.248 145.075 267.591 144.497C267.933 143.804 268.275 143.111 268.732 142.534C269.644 141.379 271.013 140.801 272.04 140.686C273.067 140.455 273.98 140.686 274.55 140.801C275.235 140.917 275.463 141.032 275.463 141.148Z" fill="#FAFAFA" fill-opacity="0.8"/>
<path d="M262.114 160.088C262 160.204 261.544 159.165 260.06 158.587C259.376 158.356 258.349 158.241 257.436 158.472C256.98 158.587 256.523 158.934 255.953 159.165C255.383 159.396 254.812 159.742 254.013 159.627C253.329 159.511 252.758 158.934 252.416 158.472C252.074 158.01 251.732 157.432 251.503 157.086C250.933 156.277 250.02 155.931 249.221 155.931C247.624 155.931 246.94 156.739 246.826 156.739C246.826 156.739 246.94 156.508 247.282 156.162C247.624 155.931 248.309 155.584 249.221 155.584C250.02 155.584 251.161 155.931 251.96 156.855C252.302 157.317 252.644 157.779 252.987 158.241C253.329 158.703 253.671 159.049 254.242 159.165C255.268 159.396 256.295 158.356 257.322 158.125C258.463 157.779 259.49 158.01 260.289 158.356C261.772 158.934 262.228 160.088 262.114 160.088Z" fill="#FAFAFA" fill-opacity="0.8"/>
<path d="M232.678 176.026C232.564 176.142 232.107 175.102 230.624 174.525C229.94 174.294 228.913 174.178 228 174.409C227.544 174.525 227.087 174.871 226.517 175.102C225.946 175.333 225.376 175.68 224.577 175.564C223.893 175.449 223.322 174.871 222.98 174.409C222.638 173.947 222.295 173.37 222.067 173.023C221.497 172.215 220.584 171.869 219.785 171.869C218.188 171.869 217.503 172.677 217.389 172.677C217.389 172.677 217.503 172.446 217.846 172.1C218.188 171.869 218.873 171.522 219.785 171.522C220.584 171.522 221.725 171.869 222.524 172.792C222.866 173.254 223.208 173.716 223.55 174.178C223.893 174.64 224.235 174.987 224.805 175.102C225.832 175.333 226.859 174.294 227.886 174.063C229.027 173.716 230.054 173.947 230.852 174.294C232.45 174.871 232.792 176.026 232.678 176.026Z" fill="#FAFAFA" fill-opacity="0.8"/>
<path d="M260.174 176.373C260.174 176.488 259.376 175.68 257.779 175.68C256.98 175.68 256.067 175.795 255.268 176.488C254.926 176.835 254.47 177.181 254.128 177.643C253.671 178.105 253.215 178.567 252.416 178.683C251.617 178.798 251.047 178.452 250.477 178.105C250.02 177.759 249.564 177.412 249.107 177.066C248.309 176.488 247.282 176.488 246.597 176.719C245.114 177.181 244.658 178.336 244.658 178.221C244.658 178.221 244.658 177.99 244.886 177.528C245.114 177.181 245.685 176.604 246.483 176.257C247.282 175.911 248.423 175.911 249.45 176.488C249.906 176.835 250.362 177.181 250.819 177.528C251.275 177.874 251.732 178.105 252.302 177.99C253.329 177.874 254.013 176.604 254.926 175.911C255.839 175.218 256.98 175.102 257.779 175.102C259.49 175.449 260.289 176.373 260.174 176.373Z" fill="#FAFAFA" fill-opacity="0.8"/>
<path d="M251.161 189.077C251.161 189.192 250.362 188.384 248.765 188.384C247.966 188.384 247.054 188.499 246.255 189.192C245.913 189.539 245.456 189.885 245.114 190.347C244.658 190.809 244.201 191.271 243.403 191.387C242.604 191.502 242.034 191.156 241.463 190.809C241.007 190.463 240.55 190.116 240.094 189.77C239.295 189.192 238.268 189.192 237.584 189.423C236.101 189.885 235.644 191.04 235.644 190.925C235.644 190.925 235.644 190.694 235.872 190.232C236.101 189.885 236.671 189.308 237.47 188.961C238.268 188.615 239.409 188.615 240.436 189.192C240.893 189.539 241.349 189.885 241.805 190.232C242.262 190.578 242.718 190.809 243.289 190.694C244.315 190.578 245 189.308 245.913 188.615C246.825 187.922 247.966 187.806 248.765 187.806C250.477 188.037 251.161 189.077 251.161 189.077Z" fill="#FAFAFA" fill-opacity="0.8"/>
<path d="M180.537 131.793C181.221 132.602 206.322 166.556 206.322 166.556L202.785 168.635L177 135.027L180.537 131.793Z" fill="#263238"/>
<path d="M278.43 155.931C278.43 155.931 254.926 197.046 253.329 197.739C250.248 199.24 214.081 167.595 210.658 164.593C210.201 163.9 209.174 162.629 207.235 159.857C207.235 159.857 204.383 146.692 201.302 147.731C198.221 148.77 203.013 154.429 200.96 159.396C199.02 164.362 189.893 152.466 189.55 151.427L187.268 148.308C187.268 148.308 184.872 155.353 184.987 158.241C185.557 167.711 194.342 178.798 194.342 178.798C194.342 178.798 230.054 224.186 257.208 225.687C264.966 226.149 279.913 203.398 289.154 186.651C294.745 176.488 292.121 166.209 282.879 159.396L278.43 155.931Z" fill="#FFBE9D"/>
<path d="M189.436 160.089C189.322 160.089 188.409 158.703 187.383 156.739C186.47 154.776 185.899 153.159 186.013 153.159C186.128 153.159 186.812 154.776 187.725 156.624C188.638 158.472 189.55 159.973 189.436 160.089Z" fill="#EB996E"/>
<path d="M278.289 144.497C277.376 145.075 255.47 186.189 255.47 186.189L283.651 208.479C283.651 208.479 290.953 190.232 294.832 175.333C295.859 171.291 295.289 160.55 293.805 156.393C286.5 141 288.557 152.004 283.765 148.539L278.289 144.497Z" fill="#5E81F4"/>
<path d="M278.5 204H285.5L286.5 207L283.5 209.5L278 205.5L278.5 204Z" fill="white"/>
<g opacity="0.7">
<path opacity="0.7" d="M285.732 144.035C286.302 144.382 286.53 144.497 286.53 144.497L286.074 144.382C285.96 144.382 285.732 144.151 285.503 144.035C285.392 143.95 285.253 143.866 285.09 143.786C285.331 143.871 285.544 143.959 285.732 144.035Z" fill="black"/>
</g>
<path d="M278.087 183.071C277.973 183.187 277.517 182.147 276.034 181.57C275.349 181.339 274.322 181.223 273.409 181.454C272.953 181.57 272.497 181.916 271.926 182.147C271.356 182.378 270.785 182.725 269.987 182.609C269.302 182.494 268.732 181.916 268.389 181.454C268.047 180.992 267.705 180.415 267.477 180.068C266.906 179.26 265.993 178.913 265.195 178.913C263.597 178.913 262.913 179.722 262.799 179.722C262.799 179.722 262.913 179.491 263.255 179.144C263.597 178.913 264.282 178.567 265.195 178.567C265.993 178.567 267.134 178.913 267.933 179.837C268.275 180.299 268.617 180.761 268.96 181.223C269.302 181.685 269.644 182.032 270.215 182.147C271.242 182.378 272.268 181.339 273.295 181.108C274.436 180.761 275.463 180.992 276.262 181.339C277.859 181.916 278.201 183.071 278.087 183.071Z" fill="#FAFAFA" fill-opacity="0.8"/>
<path d="M290.98 177.759C290.866 177.759 290.638 176.719 289.383 175.795C288.812 175.333 287.899 174.987 286.873 174.987C286.416 174.987 285.846 175.218 285.275 175.333C284.705 175.449 284.02 175.564 283.336 175.218C282.651 174.871 282.309 174.178 282.081 173.601C281.852 173.023 281.738 172.446 281.51 171.984C281.168 171.06 280.369 170.483 279.57 170.252C278.087 169.79 277.06 170.483 277.06 170.367C277.06 170.367 277.175 170.136 277.631 170.021C278.087 169.79 278.772 169.674 279.57 169.905C280.369 170.136 281.396 170.714 281.852 171.869C282.081 172.446 282.195 172.908 282.423 173.485C282.651 174.063 282.879 174.525 283.336 174.756C284.248 175.218 285.503 174.525 286.644 174.525C287.785 174.525 288.812 174.987 289.383 175.564C290.98 176.604 291.094 177.759 290.98 177.759Z" fill="#FAFAFA" fill-opacity="0.8"/>
<path d="M291.664 160.781C291.55 160.781 291.322 159.742 290.067 158.818C289.497 158.356 288.584 158.01 287.557 158.01C287.101 158.01 286.53 158.241 285.96 158.356C285.389 158.472 284.705 158.587 284.02 158.241C283.336 157.894 282.993 157.201 282.765 156.624C282.537 156.046 282.423 155.469 282.195 155.007C281.852 154.083 281.054 153.505 280.255 153.275C278.772 152.813 277.745 153.505 277.745 153.39C277.745 153.39 277.859 153.159 278.315 153.044C278.772 152.813 279.456 152.697 280.255 152.928C281.054 153.159 282.081 153.736 282.537 154.891C282.765 155.469 282.879 155.931 283.107 156.508C283.336 157.086 283.564 157.548 284.02 157.779C284.933 158.241 286.188 157.548 287.329 157.548C288.47 157.548 289.497 158.01 290.067 158.587C291.664 159.627 291.779 160.781 291.664 160.781Z" fill="#FAFAFA" fill-opacity="0.8"/>
<path d="M285.389 199.817C285.275 199.817 285.047 198.778 283.792 197.854C283.221 197.392 282.309 197.046 281.282 197.046C280.825 197.046 280.255 197.277 279.685 197.392C279.114 197.508 278.43 197.623 277.745 197.277C277.06 196.93 276.718 196.237 276.49 195.66C276.262 195.082 276.148 194.505 275.919 194.043C275.577 193.119 274.779 192.541 273.98 192.311C272.497 191.849 271.47 192.541 271.47 192.426C271.47 192.426 271.584 192.195 272.04 192.08C272.497 191.849 273.181 191.733 273.98 191.964C274.779 192.195 275.805 192.772 276.262 193.927C276.49 194.505 276.604 194.967 276.832 195.544C277.06 196.122 277.289 196.584 277.745 196.815C278.658 197.277 279.913 196.584 281.054 196.584C282.195 196.584 283.221 197.046 283.792 197.623C285.503 198.663 285.503 199.933 285.389 199.817Z" fill="#FAFAFA" fill-opacity="0.8"/>
<rect x="179" y="204" width="112" height="28" fill="white"/>
</svg>
