<svg width="131" height="48" viewBox="0 0 131 48" fill="none" xmlns="http://www.w3.org/2000/svg">
<path d="M79.875 24C79.875 25.724 79.5521 27.2005 78.9062 28.4297C78.2656 29.6536 77.3906 30.5911 76.2812 31.2422C75.1771 31.8932 73.9245 32.2187 72.5234 32.2187C71.1224 32.2187 69.8672 31.8932 68.7578 31.2422C67.6484 30.5859 66.7734 29.6458 66.1328 28.4219C65.4922 27.1927 65.1719 25.7187 65.1719 24C65.1719 22.276 65.4922 20.8021 66.1328 19.5781C66.7734 18.349 67.6484 17.4089 68.7578 16.7578C69.8672 16.1068 71.1224 15.7812 72.5234 15.7812C73.9245 15.7812 75.1771 16.1068 76.2812 16.7578C77.3906 17.4089 78.2656 18.349 78.9062 19.5781C79.5521 20.8021 79.875 22.276 79.875 24ZM76.9609 24C76.9609 22.1771 76.5469 20.7865 75.7188 19.8281C74.8958 18.8646 73.8307 18.3828 72.5234 18.3828C71.2214 18.3828 70.1562 18.8646 69.3281 19.8281C68.5 20.7865 68.0859 22.1771 68.0859 24C68.0859 25.8177 68.5 27.2083 69.3281 28.1719C70.1562 29.1354 71.2214 29.6172 72.5234 29.6172C73.8307 29.6172 74.8958 29.1354 75.7188 28.1719C76.5469 27.2083 76.9609 25.8177 76.9609 24ZM85.3184 24.9687V32H82.4902V16H85.2559V22.0391H85.3965C85.6725 21.3568 86.1048 20.8203 86.6934 20.4297C87.2871 20.0391 88.0449 19.8438 88.9668 19.8438C90.2116 19.8438 91.2116 20.2344 91.9668 21.0156C92.722 21.7969 93.0996 22.9115 93.0996 24.3594V32H90.2715V24.7969C90.2715 23.9896 90.0632 23.362 89.6465 22.9141C89.235 22.4609 88.6569 22.2344 87.9121 22.2344C87.1569 22.2344 86.5345 22.474 86.0449 22.9531C85.5605 23.4271 85.3184 24.099 85.3184 24.9687ZM99.4355 32.2422C98.2897 32.2422 97.334 31.9349 96.5684 31.3203C95.8027 30.7057 95.4199 29.8099 95.4199 28.6328C95.4199 27.7318 95.6361 27.0339 96.0684 26.5391C96.5059 26.0391 97.071 25.6771 97.7637 25.4531C98.4616 25.224 99.1986 25.0677 99.9746 24.9844C101.032 24.8698 101.79 24.763 102.248 24.6641C102.712 24.5651 102.943 24.3125 102.943 23.9062V23.8594C102.943 23.2708 102.769 22.8151 102.42 22.4922C102.071 22.1693 101.568 22.0078 100.912 22.0078C100.219 22.0078 99.6699 22.1589 99.2637 22.4609C98.8626 22.763 98.5918 23.1198 98.4512 23.5312L95.8105 23.1562C96.123 22.0625 96.7324 21.237 97.6387 20.6797C98.5501 20.1224 99.6361 19.8438 100.896 19.8438C101.469 19.8438 102.042 19.9115 102.615 20.0469C103.188 20.1823 103.712 20.4062 104.186 20.7187C104.665 21.0312 105.048 21.4531 105.334 21.9844C105.626 22.5156 105.771 23.1771 105.771 23.9687V32H103.053V30.3516H102.959C102.704 30.8568 102.287 31.2995 101.709 31.6797C101.136 32.0547 100.378 32.2422 99.4355 32.2422ZM100.17 30.1641C101.024 30.1641 101.701 29.9193 102.201 29.4297C102.701 28.9401 102.951 28.362 102.951 27.6953V26.2812C102.831 26.3802 102.61 26.4687 102.287 26.5469C101.969 26.6198 101.631 26.6823 101.271 26.7344C100.912 26.7865 100.607 26.8307 100.357 26.8672C99.7272 26.9557 99.2012 27.1302 98.7793 27.3906C98.3574 27.6458 98.1465 28.0443 98.1465 28.5859C98.1465 29.1068 98.3366 29.5 98.7168 29.7656C99.097 30.0312 99.5814 30.1641 100.17 30.1641ZM108.615 32V20H111.357V22H111.482C111.701 21.3021 112.076 20.7656 112.607 20.3906C113.139 20.0156 113.751 19.8281 114.443 19.8281C114.766 19.8281 115.063 19.8672 115.334 19.9453C115.605 20.0234 115.844 20.1302 116.053 20.2656L115.178 22.6094C115.027 22.5365 114.86 22.4766 114.678 22.4297C114.495 22.3828 114.29 22.3594 114.061 22.3594C113.321 22.3594 112.699 22.6016 112.193 23.0859C111.693 23.5651 111.443 24.1849 111.443 24.9453V32H108.615ZM120.941 32.2422C119.796 32.2422 118.84 31.9349 118.074 31.3203C117.309 30.7057 116.926 29.8099 116.926 28.6328C116.926 27.7318 117.142 27.0339 117.574 26.5391C118.012 26.0391 118.577 25.6771 119.27 25.4531C119.967 25.224 120.704 25.0677 121.48 24.9844C122.538 24.8698 123.296 24.763 123.754 24.6641C124.217 24.5651 124.449 24.3125 124.449 23.9062V23.8594C124.449 23.2708 124.275 22.8151 123.926 22.4922C123.577 22.1693 123.074 22.0078 122.418 22.0078C121.725 22.0078 121.176 22.1589 120.77 22.4609C120.368 22.763 120.098 23.1198 119.957 23.5312L117.316 23.1562C117.629 22.0625 118.238 21.237 119.145 20.6797C120.056 20.1224 121.142 19.8438 122.402 19.8438C122.975 19.8438 123.548 19.9115 124.121 20.0469C124.694 20.1823 125.217 20.4062 125.691 20.7187C126.171 21.0312 126.553 21.4531 126.84 21.9844C127.132 22.5156 127.277 23.1771 127.277 23.9687V32H124.559V30.3516H124.465C124.21 30.8568 123.793 31.2995 123.215 31.6797C122.642 32.0547 121.884 32.2422 120.941 32.2422ZM121.676 30.1641C122.53 30.1641 123.207 29.9193 123.707 29.4297C124.207 28.9401 124.457 28.362 124.457 27.6953V26.2812C124.337 26.3802 124.116 26.4687 123.793 26.5469C123.475 26.6198 123.137 26.6823 122.777 26.7344C122.418 26.7865 122.113 26.8307 121.863 26.8672C121.233 26.9557 120.707 27.1302 120.285 27.3906C119.863 27.6458 119.652 28.0443 119.652 28.5859C119.652 29.1068 119.842 29.5 120.223 29.7656C120.603 30.0312 121.087 30.1641 121.676 30.1641Z" fill="#5E81F4"/>
<rect width="48" height="48" rx="12" fill="#5E81F4"/>
<path d="M23.528 15.672C25.224 15.672 26.704 16.016 27.968 16.704C29.248 17.392 30.24 18.392 30.944 19.704C31.648 21 32 22.552 32 24.36C32 26.12 31.64 27.68 30.92 29.04C30.2 30.4 29.192 31.456 27.896 32.208C26.616 32.96 25.152 33.336 23.504 33.336C21.808 33.336 20.32 32.992 19.04 32.304C17.776 31.616 16.792 30.624 16.088 29.328C15.384 28.016 15.032 26.456 15.032 24.648C15.032 22.888 15.392 21.328 16.112 19.968C16.832 18.608 17.832 17.552 19.112 16.8C20.408 16.048 21.88 15.672 23.528 15.672ZM23.432 16.104C22.552 16.104 21.776 16.464 21.104 17.184C20.432 17.888 19.912 18.88 19.544 20.16C19.192 21.44 19.016 22.904 19.016 24.552C19.016 26.216 19.216 27.68 19.616 28.944C20.032 30.208 20.584 31.184 21.272 31.872C21.976 32.56 22.752 32.904 23.6 32.904C24.48 32.904 25.256 32.552 25.928 31.848C26.6 31.128 27.112 30.128 27.464 28.848C27.832 27.568 28.016 26.104 28.016 24.456C28.016 22.792 27.808 21.328 27.392 20.064C26.992 18.8 26.44 17.824 25.736 17.136C25.048 16.448 24.28 16.104 23.432 16.104Z" fill="white"/>
</svg>
